<svg viewBox="0 0 485.38 563.23" xmlns="http://www.w3.org/2000/svg"><g fill="#fff" fill-rule="evenodd"><path d="m219.79 170.79v-54.3c0-8.63-4-12.64-12.28-12.64h-13.51v79.59h13.51c8.29 0 12.28-4.01 12.28-12.65z"/><path d="m176.42 364.39-7.38 18.58h14.66z"/><path d="m441.3 0h-397.22c-32.2 0-44.08 11.88-44.08 44.09v388.68a100.74 100.74 0 0 0 .47 10.17c.73 7 .87 13.84 7.41 21.6.64.76 7.31 5.73 7.31 5.73 3.59 1.76 6 3.05 10.1 4.68l195.59 81.95c10.16 4.66 14.4 6.47 21.78 6.33h.06c7.37.14 11.62-1.67 21.77-6.33l195.6-81.9c4.05-1.63 6.5-2.92 10.09-4.68 0 0 6.68-5 7.32-5.73 6.53-7.76 6.67-14.57 7.41-21.6a100.74 100.74 0 0 0 .47-10.17v-388.73c0-32.21-11.89-44.09-44.08-44.09zm-173.84 74.85h32.85v216h-32.85zm2.22 268.54h19.13v65.34h-18v-37.52l-16.71 25.58h-.38l-16.61-25.4v37.34h-17.75v-65.34h19.14l15.59 25.3zm-108.53-268.54h51.58c26.71 0 39.91 13.26 39.91 40.1v57.39c0 26.83-13.2 40.1-39.91 40.1h-18.73v78.36h-32.85zm-89.54 0h73.07v29.92h-40.22v61.09h38.68v29.92h-38.68v65.1h40.83v29.92h-73.68zm62.8 325.15a44.22 44.22 0 0 1 -28.41 10c-20.35 0-35.57-14-35.57-33.79v-.19c0-19 14.94-34 35.19-34 11.49 0 19.61 3.55 26.52 9.52l-10.65 12.79c-4.66-3.92-9.33-6.16-15.77-6.16-9.43 0-16.71 7.94-16.71 17.92v.19c0 10.55 7.37 18.11 17.73 18.11a18.43 18.43 0 0 0 10.46-2.71v-7.93h-12.85v-13.2h30.06zm33.42-57h17.45l27.82 65.81h-19.41l-4.76-11.66h-25.21l-4.67 11.66h-19.05zm73.34 174.8-92.07-31.74h188.06zm112.62-109h-53v-65.41h52.56v15.4h-34.66v9.9h31.36v14.31h-31.36v10.36h35.1zm-36.12-156.26v-139.44c0-26.84 13.21-40.1 39.91-40.1h16c26.71 0 39.6 13 39.6 39.79v44.12h-32.26v-42.27c0-8.64-4-12.64-12.28-12.64h-5.53c-8.6 0-12.59 4-12.59 12.64v136.36c0 8.63 4 12.64 12.59 12.64h6.14c8.29 0 12.28-4 12.28-12.64v-48.74h32.24v50.28c0 26.85-13.2 40.11-39.91 40.11h-16.28c-26.7 0-39.91-13.26-39.91-40.11zm97.82 136c0 13.35-10.55 21.28-26.42 21.28-11.57 0-22.59-3.64-30.62-10.82l10.09-12a33.62 33.62 0 0 0 21.19 7.84c4.85 0 7.47-1.68 7.47-4.48v-.18c0-2.71-2.15-4.2-11-6.26-13.91-3.17-24.65-7.09-24.65-20.53v-.19c0-12.14 9.62-20.91 25.3-20.91 11.11 0 19.79 3 26.89 8.68l-9.06 12.79c-6-4.2-12.51-6.44-18.29-6.44-4.39 0-6.54 1.86-6.54 4.2v.18c0 3 2.24 4.3 11.3 6.35 15 3.27 24.36 8.12 24.36 20.35z"/></g></svg>